<?xml version="1.0" encoding="UTF-8"?>
<svg id="Capa_1" xmlns="http://www.w3.org/2000/svg" version="1.1" viewBox="0 0 73.1 73.1">
  <!-- Generator: Adobe Illustrator 29.6.0, SVG Export Plug-In . SVG Version: 2.1.1 Build 207)  -->
  <g>
    <path d="M66.1,39.3H7l6.9-12.2c1-1.8,3-3,5.1-3h35c2.1,0,4.1,1.1,5.1,3l6.9,12.2Z" fill="#fff" stroke="#111f62" stroke-miterlimit="10" stroke-width="2"/>
    <path d="M72.1,52h0c0-2.7-.8-5.2-2.2-7.3l-3.8-5.4H7l-3.8,5.4c-1.5,2.1-2.2,4.6-2.2,7.2v12.7h71.1v-5.7" fill="#fff" stroke="#111f62" stroke-linecap="round" stroke-miterlimit="10" stroke-width="2"/>
    <path d="M1,64.6h16.4v1.7c0,3.2-2.6,5.8-5.8,5.8h-4.8c-3.2,0-5.8-2.6-5.8-5.8v-1.7h0Z" fill="#111f62" stroke="#111f62" stroke-miterlimit="10" stroke-width="2"/>
    <path d="M55.7,64.6h16.4v1.7c0,3.2-2.6,5.8-5.8,5.8h-4.8c-3.2,0-5.8-2.6-5.8-5.8v-1.7h0Z" fill="#111f62" stroke="#111f62" stroke-miterlimit="10" stroke-width="2"/>
    <path d="M43.4,39.3c0-4.7,3.8-8.5,8.5-8.5s8.5,3.8,8.5,8.5" fill="none" stroke="#111f62" stroke-miterlimit="10" stroke-width="2"/>
    <rect x="24.8" y="57.2" width="23.5" height="7.4" fill="#2d35a4" stroke="#111f62" stroke-linejoin="round" stroke-width="2"/>
    <g>
      <rect x="8.1" y="47.8" width="13.3" height="9.4" rx="1.6" ry="1.6" fill="none" stroke="#111f62" stroke-miterlimit="10" stroke-width="2"/>
      <rect x="51.7" y="47.8" width="13.3" height="9.4" rx="1.6" ry="1.6" fill="none" stroke="#111f62" stroke-miterlimit="10" stroke-width="2"/>
    </g>
  </g>
  <circle cx="17" cy="17" r="16" fill="#fff" stroke="#111f62" stroke-linecap="round" stroke-miterlimit="10" stroke-width="2"/>
  <g>
    <path d="M12.5,20.3h0s-4.5-4.5-4.5-4.5c-1.1-1.1-2.8-1.1-3.9,0-1.1,1.1-1.1,2.8,0,3.9l6.4,6.5c.5.5,1.2.8,1.9.8s1.4-.3,1.9-.8l1.8-1.8c-1.4-1.2-2.6-2.5-3.7-4Z" fill="#2d35a4"/>
    <path d="M27.8,8.9c-1.1-1.1-2.8-1.1-3.9,0l-11.4,11.4c1,1.5,2.3,2.9,3.7,4l11.6-11.6c1.1-1.1,1.1-2.8,0-3.9Z" fill="#3cb4e5"/>
  </g>
  <path d="M27.8,8.9c-1.1-1.1-2.8-1.1-3.9,0l-11.4,11.4h0s-4.5-4.5-4.5-4.5c-1.1-1.1-2.8-1.1-3.9,0-1.1,1.1-1.1,2.8,0,3.9l6.4,6.5c.5.5,1.2.8,1.9.8s1.4-.3,1.9-.8l1.8-1.8,11.6-11.6c1.1-1.1,1.1-2.8,0-3.9Z" fill="none" stroke="#111f62" stroke-linecap="round" stroke-miterlimit="10" stroke-width="2"/>
  <path d="M66.5,18.2c-2.4-.3-4.2-1.7-4.6-4.1l2.6-.7c.3,1.3,1.3,2.3,2.9,2.3s2.4-.6,2.4-2-.6-1.5-2.1-2.1l-1.6-.6c-2.5-1-3.6-2.5-3.6-4.3s1.7-3.8,4-4.1V0h2.1v2.6c2,.3,3.4,1.7,3.8,3.5l-2.5.7c-.4-1.2-1.3-1.7-2.3-1.7s-2,.6-2,1.6.5,1.5,1.9,2l1.5.6c2.1.8,4,1.9,4,4.5s-1.9,4.1-4.3,4.5v2.6h-2.1v-2.5Z" fill="#111f62"/>
</svg>